<svg xmlns="http://www.w3.org/2000/svg" width="1440" height="900" viewBox="0 0 1440 900"><defs><linearGradient id="bg" x2="1" y2="1"><stop stop-color="#0a0d12"/><stop offset="1" stop-color="#111721"/></linearGradient><linearGradient id="card" x2="0" y2="1"><stop stop-color="#141a23"/><stop offset="1" stop-color="#10151c"/></linearGradient></defs><rect width="1440" height="900" fill="url(#bg)"/><rect x="0" y="0" width="212" height="900" rx="0" fill="#0b0f15" stroke="#202833"/><rect x="0" y="0" width="212" height="900" fill="#0b0f15"/><rect x="25" y="25" width="40" height="40" rx="9" fill="#17232c" stroke="#2b3c49"/><text x="45" y="53" fill="#5bd3e6" font-family="Segoe UI" font-size="25" font-weight="700" text-anchor="middle" letter-spacing="0">∿</text><text x="77" y="43" fill="#edf2f8" font-family="Segoe UI" font-size="16" font-weight="700" text-anchor="start" letter-spacing="0">System Pulse</text><text x="77" y="62" fill="#778594" font-family="Consolas" font-size="9" font-weight="400" text-anchor="start" letter-spacing="1.5">PERFORMANCE CENTER</text><text x="27" y="112" fill="#778594" font-family="Consolas" font-size="10" font-weight="500" text-anchor="start" letter-spacing="1.4">WORKSPACE</text><rect x="16" y="132" width="180" height="37" rx="7" fill="#182830" stroke="#263d47"/><text x="34" y="157" fill="#5bd3e6" font-family="Segoe UI" font-size="16" font-weight="400" text-anchor="start" letter-spacing="0">◫</text><text x="62" y="157" fill="#e9f3f7" font-family="Segoe UI" font-size="13" font-weight="500" text-anchor="start" letter-spacing="0">Overview</text><rect x="16" y="177" width="180" height="37" rx="7" fill="transparent" stroke="transparent"/><text x="34" y="202" fill="#7fa1bc" font-family="Segoe UI" font-size="16" font-weight="400" text-anchor="start" letter-spacing="0">▤</text><text x="62" y="202" fill="#9baaba" font-family="Segoe UI" font-size="13" font-weight="500" text-anchor="start" letter-spacing="0">Processes</text><rect x="16" y="222" width="180" height="37" rx="7" fill="transparent" stroke="transparent"/><text x="34" y="247" fill="#7fa1bc" font-family="Segoe UI" font-size="16" font-weight="400" text-anchor="start" letter-spacing="0">◷</text><text x="62" y="247" fill="#9baaba" font-family="Segoe UI" font-size="13" font-weight="500" text-anchor="start" letter-spacing="0">Startup apps</text><text x="27" y="302" fill="#778594" font-family="Consolas" font-size="10" font-weight="500" text-anchor="start" letter-spacing="1.4">PREFERENCES</text><rect x="16" y="320" width="180" height="37" rx="7" fill="transparent" stroke="transparent"/><text x="34" y="345" fill="#7fa1bc" font-family="Segoe UI" font-size="15" font-weight="400" text-anchor="start" letter-spacing="0">⚙</text><text x="62" y="345" fill="#9baaba" font-family="Segoe UI" font-size="13" font-weight="500" text-anchor="start" letter-spacing="0">Settings</text><rect x="16" y="786" width="180" height="70" rx="8" fill="#11171e" stroke="#26303c"/><circle cx="31" cy="807" r="4" fill="#68ddb2"/><text x="44" y="811" fill="#edf2f8" font-family="Segoe UI" font-size="11" font-weight="600" text-anchor="start" letter-spacing="0">Windows monitor connected</text><text x="30" y="831" fill="#778594" font-family="Segoe UI" font-size="9" font-weight="400" text-anchor="start" letter-spacing="0">Example data for this preview</text><text x="27" y="880" fill="#66788a" font-family="Consolas" font-size="8" font-weight="400" text-anchor="start" letter-spacing="0.4">LOCAL MONITORING  ·  NO CLOUD SYNC</text><path d="M212 0H212" stroke="#252d38" stroke-width="1"/><path d="M212 61H1440" stroke="#252d38" stroke-width="1"/><text x="242" y="37" fill="#7590a9" font-family="Consolas" font-size="10" font-weight="400" text-anchor="start" letter-spacing="1.5">SYSTEM PULSE</text><text x="344" y="37" fill="#778594" font-family="Segoe UI" font-size="12" font-weight="400" text-anchor="start" letter-spacing="0">/</text><text x="362" y="37" fill="#edf2f8" font-family="Segoe UI" font-size="12" font-weight="500" text-anchor="start" letter-spacing="0">Overview</text><circle cx="1251" cy="30" r="4" fill="#68ddb2"/><rect x="1237" y="15" width="62" height="28" rx="15" fill="#13211e" stroke="#29483f"/><text x="1268" y="33" fill="#89dfc2" font-family="Consolas" font-size="10" font-weight="500" text-anchor="middle" letter-spacing="0">Live</text><text x="1325" y="35" fill="#778594" font-family="Consolas" font-size="9" font-weight="400" text-anchor="start" letter-spacing="0">Updated just now</text><rect x="1390" y="13" width="34" height="34" rx="7" fill="#121821" stroke="#2a3441"/><text x="1407" y="36" fill="#9caaba" font-family="Segoe UI" font-size="18" font-weight="500" text-anchor="middle" letter-spacing="0">↻</text><text x="242" y="94" fill="#6886a1" font-family="Consolas" font-size="10" font-weight="500" text-anchor="start" letter-spacing="1.5">YOUR PC AT A GLANCE</text><text x="242" y="133" fill="#edf2f8" font-family="Segoe UI" font-size="29" font-weight="700" text-anchor="start" letter-spacing="0">System overview</text><text x="242" y="158" fill="#778594" font-family="Segoe UI" font-size="12" font-weight="400" text-anchor="start" letter-spacing="0">Live performance, hardware sensors, and storage health.</text><rect x="1306" y="83" width="112" height="43" rx="7" fill="#121922" stroke="#2a3541"/><text x="1320" y="101" fill="#778594" font-family="Consolas" font-size="8" font-weight="500" text-anchor="start" letter-spacing="0">UPTIME</text><text x="1320" y="118" fill="#edf2f8" font-family="Consolas" font-size="13" font-weight="600" text-anchor="start" letter-spacing="0">2d 5h</text><rect x="242" y="183" width="278" height="166" rx="9" fill="url(#card)" stroke="#293340"/><text x="260" y="211" fill="#5bd3e6" font-family="Segoe UI" font-size="18" font-weight="600" text-anchor="start" letter-spacing="0">◌</text><text x="285" y="210" fill="#aab5c2" font-family="Consolas" font-size="10" font-weight="500" text-anchor="start" letter-spacing="0.8">CPU</text><text x="499" y="210" fill="#5bd3e6" font-family="Consolas" font-size="8" font-weight="500" text-anchor="end" letter-spacing="0">LIVE</text><text x="260" y="259" fill="#edf2f8" font-family="Segoe UI" font-size="32" font-weight="700" text-anchor="start" letter-spacing="0">24%</text><text x="260" y="282" fill="#778594" font-family="Segoe UI" font-size="10" font-weight="400" text-anchor="start" letter-spacing="0">Total processor load</text><rect x="260" y="298" width="242" height="4" rx="2" fill="#222b36" stroke="none"/><rect x="260" y="298" width="58.08" height="4" rx="2" fill="#5bd3e6" stroke="none"/><polyline points="260.0,330.4 290.2,329.1 320.5,330.0 350.8,325.1 381.0,327.5 411.2,322.7 441.5,327.8 471.8,324.2 502.0,326.4" fill="none" stroke="#5bd3e6" stroke-width="2" stroke-linecap="round" stroke-linejoin="round" opacity=".95"/><rect x="536" y="183" width="278" height="166" rx="9" fill="url(#card)" stroke="#293340"/><text x="554" y="211" fill="#a58afa" font-family="Segoe UI" font-size="18" font-weight="600" text-anchor="start" letter-spacing="0">◌</text><text x="579" y="210" fill="#aab5c2" font-family="Consolas" font-size="10" font-weight="500" text-anchor="start" letter-spacing="0.8">GPU</text><text x="793" y="210" fill="#a58afa" font-family="Consolas" font-size="8" font-weight="500" text-anchor="end" letter-spacing="0">LIVE</text><text x="554" y="259" fill="#edf2f8" font-family="Segoe UI" font-size="32" font-weight="700" text-anchor="start" letter-spacing="0">37%</text><text x="554" y="282" fill="#778594" font-family="Segoe UI" font-size="10" font-weight="400" text-anchor="start" letter-spacing="0">Busiest graphics engine</text><rect x="554" y="298" width="242" height="4" rx="2" fill="#222b36" stroke="none"/><rect x="554" y="298" width="89.54" height="4" rx="2" fill="#a58afa" stroke="none"/><polyline points="554.0,329.3 584.2,330.8 614.5,327.8 644.8,330.2 675.0,326.7 705.2,328.4 735.5,324.2 765.8,327.3 796.0,324.5" fill="none" stroke="#a58afa" stroke-width="2" stroke-linecap="round" stroke-linejoin="round" opacity=".95"/><rect x="830" y="183" width="278" height="166" rx="9" fill="url(#card)" stroke="#293340"/><text x="848" y="211" fill="#65ddb7" font-family="Segoe UI" font-size="18" font-weight="600" text-anchor="start" letter-spacing="0">◌</text><text x="873" y="210" fill="#aab5c2" font-family="Consolas" font-size="10" font-weight="500" text-anchor="start" letter-spacing="0.8">MEMORY</text><text x="1087" y="210" fill="#65ddb7" font-family="Consolas" font-size="8" font-weight="500" text-anchor="end" letter-spacing="0">LIVE</text><text x="848" y="259" fill="#edf2f8" font-family="Segoe UI" font-size="32" font-weight="700" text-anchor="start" letter-spacing="0">63%</text><text x="848" y="282" fill="#778594" font-family="Segoe UI" font-size="10" font-weight="400" text-anchor="start" letter-spacing="0">10.1 GB used of 16 GB</text><rect x="848" y="298" width="242" height="4" rx="2" fill="#222b36" stroke="none"/><rect x="848" y="298" width="152.46" height="4" rx="2" fill="#65ddb7" stroke="none"/><polyline points="848.0,324.2 878.2,323.6 908.5,323.8 938.8,323.4 969.0,322.9 999.2,323.4 1029.5,322.7 1059.8,323.1 1090.0,322.9" fill="none" stroke="#65ddb7" stroke-width="2" stroke-linecap="round" stroke-linejoin="round" opacity=".95"/><rect x="1124" y="183" width="278" height="166" rx="9" fill="url(#card)" stroke="#293340"/><text x="1142" y="211" fill="#e8bd78" font-family="Segoe UI" font-size="18" font-weight="600" text-anchor="start" letter-spacing="0">◌</text><text x="1167" y="210" fill="#aab5c2" font-family="Consolas" font-size="10" font-weight="500" text-anchor="start" letter-spacing="0.8">DISK ACTIVITY</text><text x="1381" y="210" fill="#e8bd78" font-family="Consolas" font-size="8" font-weight="500" text-anchor="end" letter-spacing="0">LIVE</text><text x="1142" y="259" fill="#edf2f8" font-family="Segoe UI" font-size="32" font-weight="700" text-anchor="start" letter-spacing="0">1.8 MB/s</text><text x="1142" y="282" fill="#778594" font-family="Segoe UI" font-size="10" font-weight="400" text-anchor="start" letter-spacing="0">READ  ·  640 KB/s WRITE</text><polyline points="1142.0,332.6 1172.2,330.0 1202.5,331.3 1232.8,325.6 1263.0,329.1 1293.2,322.0 1323.5,327.3 1353.8,324.2 1384.0,326.4" fill="none" stroke="#e8bd78" stroke-width="2" stroke-linecap="round" stroke-linejoin="round" opacity=".95"/><rect x="242" y="369" width="574" height="228" rx="9" fill="url(#card)" stroke="#293340"/><text x="261" y="396" fill="#71879d" font-family="Consolas" font-size="9" font-weight="500" text-anchor="start" letter-spacing="1.4">TRAFFIC</text><text x="261" y="421" fill="#edf2f8" font-family="Segoe UI" font-size="17" font-weight="650" text-anchor="start" letter-spacing="0">Network activity</text><text x="785" y="400" fill="#65ddb7" font-family="Consolas" font-size="9" font-weight="500" text-anchor="end" letter-spacing="0">● LIVE</text><text x="264" y="462" fill="#edf2f8" font-family="Segoe UI" font-size="15" font-weight="600" text-anchor="start" letter-spacing="0">↓  4.2 MB/s</text><text x="430" y="462" fill="#edf2f8" font-family="Segoe UI" font-size="15" font-weight="600" text-anchor="start" letter-spacing="0">↑  720 KB/s</text><text x="264" y="483" fill="#778594" font-family="Consolas" font-size="8" font-weight="500" text-anchor="start" letter-spacing="0">RECEIVING</text><text x="430" y="483" fill="#778594" font-family="Consolas" font-size="8" font-weight="500" text-anchor="start" letter-spacing="0">SENDING</text><path d="M264 510H794" stroke="#202a35" stroke-width="1"/><path d="M264 544H794" stroke="#202a35" stroke-width="1"/><path d="M264 578H794" stroke="#202a35" stroke-width="1"/><polyline points="264.0,567.6 295.2,564.3 326.4,557.8 357.5,562.7 388.7,546.3 419.9,556.1 451.1,549.6 482.2,526.6 513.4,538.9 544.6,535.6 575.8,547.9 606.9,531.5 638.1,528.2 669.3,544.6 700.5,538.9 731.6,515.9 762.8,533.2 794.0,525.8" fill="none" stroke="#65ddc1" stroke-width="2" stroke-linecap="round" stroke-linejoin="round" opacity=".95"/><polyline points="264.0,559.5 297.1,556.8 330.2,558.8 363.4,553.5 396.5,548.9 429.6,554.9 462.8,547.6 495.9,550.9 529.0,540.3 562.1,552.2 595.2,547.6 628.4,543.6 661.5,550.2 694.6,539.7 727.8,545.6 760.9,542.3 794.0,547.6" fill="none" stroke="#a58afa" stroke-width="2" stroke-linecap="round" stroke-linejoin="round" opacity=".95"/><rect x="830" y="369" width="588" height="228" rx="9" fill="url(#card)" stroke="#293340"/><text x="850" y="396" fill="#71879d" font-family="Consolas" font-size="9" font-weight="500" text-anchor="start" letter-spacing="1.4">HARDWARE</text><text x="850" y="421" fill="#edf2f8" font-family="Segoe UI" font-size="17" font-weight="650" text-anchor="start" letter-spacing="0">Temperature &amp; fans</text><rect x="1333" y="385" width="64" height="24" rx="12" fill="#17212b" stroke="#2a3541"/><text x="1365" y="401" fill="#9caaba" font-family="Consolas" font-size="8" font-weight="500" text-anchor="middle" letter-spacing="0">SENSORS</text><path d="M850 445H1397" stroke="#232c36" stroke-width="1"/><text x="850" y="463" fill="#9caaba" font-family="Segoe UI" font-size="11" font-weight="500" text-anchor="start" letter-spacing="0">System temperature</text><text x="1395" y="463" fill="#edf2f8" font-family="Consolas" font-size="11" font-weight="600" text-anchor="end" letter-spacing="0">48°C</text><path d="M850 486H1397" stroke="#232c36" stroke-width="1"/><text x="850" y="504" fill="#9caaba" font-family="Segoe UI" font-size="11" font-weight="500" text-anchor="start" letter-spacing="0">GPU temperature</text><text x="1395" y="504" fill="#edf2f8" font-family="Consolas" font-size="11" font-weight="600" text-anchor="end" letter-spacing="0">55°C</text><path d="M850 527H1397" stroke="#232c36" stroke-width="1"/><text x="850" y="545" fill="#9caaba" font-family="Segoe UI" font-size="11" font-weight="500" text-anchor="start" letter-spacing="0">Fan speed</text><text x="1395" y="545" fill="#edf2f8" font-family="Consolas" font-size="11" font-weight="600" text-anchor="end" letter-spacing="0">Unavailable</text><rect x="242" y="617" width="1176" height="149" rx="9" fill="url(#card)" stroke="#293340"/><text x="261" y="646" fill="#71879d" font-family="Consolas" font-size="9" font-weight="500" text-anchor="start" letter-spacing="1.4">LOCAL STORAGE</text><text x="261" y="671" fill="#edf2f8" font-family="Segoe UI" font-size="17" font-weight="650" text-anchor="start" letter-spacing="0">Drive space</text><text x="1397" y="646" fill="#778594" font-family="Consolas" font-size="9" font-weight="500" text-anchor="end" letter-spacing="0">2 DRIVES</text><text x="262" y="706" fill="#5bd3e6" font-family="Consolas" font-size="13" font-weight="650" text-anchor="start" letter-spacing="0">C:</text><text x="296" y="706" fill="#9caaba" font-family="Segoe UI" font-size="10" font-weight="400" text-anchor="start" letter-spacing="0">Windows</text><text x="782" y="706" fill="#778594" font-family="Consolas" font-size="9" font-weight="500" text-anchor="end" letter-spacing="0">67% used</text><rect x="262" y="720" width="520" height="6" rx="3" fill="#252e38" stroke="none"/><rect x="262" y="720" width="348.4" height="6" rx="3" fill="#5bd3e6" stroke="none"/><text x="262" y="746" fill="#778594" font-family="Segoe UI" font-size="9" font-weight="400" text-anchor="start" letter-spacing="0">92 GB free</text><text x="782" y="746" fill="#778594" font-family="Consolas" font-size="9" font-weight="400" text-anchor="end" letter-spacing="0">280 GB total</text><text x="828" y="706" fill="#5bd3e6" font-family="Consolas" font-size="13" font-weight="650" text-anchor="start" letter-spacing="0">D:</text><text x="862" y="706" fill="#9caaba" font-family="Segoe UI" font-size="10" font-weight="400" text-anchor="start" letter-spacing="0">Projects</text><text x="1348" y="706" fill="#778594" font-family="Consolas" font-size="9" font-weight="500" text-anchor="end" letter-spacing="0">42% used</text><rect x="828" y="720" width="520" height="6" rx="3" fill="#252e38" stroke="none"/><rect x="828" y="720" width="218.4" height="6" rx="3" fill="#65ddb7" stroke="none"/><text x="828" y="746" fill="#778594" font-family="Segoe UI" font-size="9" font-weight="400" text-anchor="start" letter-spacing="0">465 GB free</text><text x="1348" y="746" fill="#778594" font-family="Consolas" font-size="9" font-weight="400" text-anchor="end" letter-spacing="0">800 GB total</text></svg>